# xmcd
#
# Track frame offsets: 
#        150
#        18125
#        33244
#        51330
#        66991
#        77628
#
# Disc length: 1307 seconds
#
# Revision: 0
# Processed by: cddbd v1.5.2PL0 Copyright (c) Steve Scherf et al.
# Submitted via: ExactAudioCopy v0.99pb5
#
DISCID=43051906
DTITLE=Kristina Öhman BluesBand - Blues Svett and Tårar
DYEAR=2008
DGENRE=Blues
TTITLE0=Blues Svett and Tårar
TTITLE1=1000 År Försent
TTITLE2=Freeloaders
TTITLE3=Onsdagskväll i Himlen
TTITLE4=Junkfood Blues
TTITLE5=Vin och Sympati
EXTD=
EXTT0=
EXTT1=
EXTT2=
EXTT3=
EXTT4=
EXTT5=
PLAYORDER=
